<svg width="375" height="656" viewBox="0 0 375 656" fill="none" xmlns="http://www.w3.org/2000/svg">
<g opacity="0.7" filter="url(#filter0_f_617_1090)">
<circle cx="187.203" cy="328" r="148" fill="black"/>
</g>
<g filter="url(#filter1_f_617_1090)">
<path d="M330.763 328C333.215 328 335.21 329.989 335.136 332.44C334.399 357.011 327.551 381.038 315.18 402.335C302.066 424.914 283.211 443.621 260.531 456.558C237.85 469.494 212.151 476.201 186.041 475.995C159.93 475.79 134.339 468.681 111.865 455.39C89.3901 442.098 70.8318 423.098 58.0735 400.316C45.3152 377.534 38.811 351.783 39.2211 325.675C39.6313 299.568 46.9411 274.033 60.4087 251.664C73.1121 230.563 90.8678 212.987 112.045 200.504C114.157 199.259 116.861 200.049 118.042 202.197C119.224 204.346 118.435 207.04 116.325 208.289C96.5198 220.015 79.9117 236.486 68.0163 256.244C55.3568 277.271 48.4856 301.274 48.1 325.815C47.7145 350.356 53.8284 374.562 65.8212 395.977C77.8141 417.392 95.2588 435.252 116.385 447.746C137.511 460.241 161.567 466.923 186.11 467.116C210.654 467.309 234.811 461.005 256.131 448.844C277.451 436.683 295.174 419.099 307.502 397.875C319.085 377.933 325.518 355.444 326.252 332.439C326.33 329.989 328.311 328 330.763 328Z" fill="#11DCE8"/>
</g>
<circle opacity="0.3" cx="187" cy="328" r="143.5" stroke="white"/>
<path d="M330.763 328C333.215 328 335.21 329.989 335.136 332.44C334.399 357.011 327.551 381.038 315.18 402.335C302.066 424.914 283.211 443.621 260.531 456.558C237.85 469.494 212.151 476.201 186.041 475.995C159.93 475.79 134.339 468.681 111.865 455.39C89.3901 442.098 70.8318 423.098 58.0735 400.316C45.3152 377.534 38.811 351.783 39.2211 325.675C39.6313 299.568 46.9411 274.033 60.4087 251.664C73.1121 230.563 90.8678 212.987 112.045 200.504C114.157 199.259 116.861 200.049 118.042 202.197C119.224 204.346 118.435 207.04 116.325 208.289C96.5198 220.015 79.9117 236.486 68.0163 256.244C55.3568 277.271 48.4856 301.274 48.1 325.815C47.7145 350.356 53.8284 374.562 65.8212 395.977C77.8141 417.392 95.2588 435.252 116.385 447.746C137.511 460.241 161.567 466.923 186.11 467.116C210.654 467.309 234.811 461.005 256.131 448.844C277.451 436.683 295.174 419.099 307.502 397.875C319.085 377.933 325.518 355.444 326.252 332.439C326.33 329.989 328.311 328 330.763 328Z" fill="white"/>
<path d="M110.884 363.664V355.264H111.652V363.664H110.884ZM111.652 359.86V359.164H115.312V359.86H111.652ZM111.652 355.96V355.264H115.72V355.96H111.652Z" fill="white"/>
<path d="M117.236 360.376C117.236 359.728 117.356 359.204 117.596 358.804C117.844 358.404 118.16 358.112 118.544 357.928C118.936 357.736 119.348 357.64 119.78 357.64V358.3C119.428 358.3 119.088 358.364 118.76 358.492C118.44 358.612 118.176 358.82 117.968 359.116C117.76 359.404 117.656 359.8 117.656 360.304L117.236 360.376ZM116.936 363.664V357.664H117.656V363.664H116.936Z" fill="white"/>
<path d="M123.395 363.808C122.819 363.808 122.307 363.676 121.859 363.412C121.419 363.14 121.071 362.768 120.815 362.296C120.567 361.824 120.443 361.28 120.443 360.664C120.443 360.048 120.567 359.504 120.815 359.032C121.063 358.56 121.403 358.192 121.835 357.928C122.275 357.656 122.775 357.52 123.335 357.52C123.903 357.52 124.383 357.66 124.775 357.94C125.175 358.212 125.479 358.592 125.687 359.08C125.895 359.56 125.999 360.116 125.999 360.748H125.279C125.279 360.244 125.207 359.8 125.063 359.416C124.919 359.032 124.703 358.732 124.415 358.516C124.127 358.292 123.767 358.18 123.335 358.18C122.911 358.18 122.535 358.288 122.207 358.504C121.879 358.712 121.623 359.004 121.439 359.38C121.255 359.748 121.163 360.176 121.163 360.664C121.163 361.152 121.259 361.584 121.451 361.96C121.643 362.328 121.907 362.62 122.243 362.836C122.579 363.044 122.963 363.148 123.395 363.148C123.859 363.148 124.251 363.036 124.571 362.812C124.899 362.58 125.155 362.284 125.339 361.924L125.939 362.296C125.787 362.592 125.587 362.856 125.339 363.088C125.099 363.312 124.815 363.488 124.487 363.616C124.159 363.744 123.795 363.808 123.395 363.808ZM120.935 360.748V360.088H125.483V360.748H120.935Z" fill="white"/>
<path d="M129.911 363.808C129.335 363.808 128.823 363.676 128.375 363.412C127.935 363.14 127.587 362.768 127.331 362.296C127.083 361.824 126.959 361.28 126.959 360.664C126.959 360.048 127.083 359.504 127.331 359.032C127.579 358.56 127.919 358.192 128.351 357.928C128.791 357.656 129.291 357.52 129.851 357.52C130.419 357.52 130.899 357.66 131.291 357.94C131.691 358.212 131.995 358.592 132.203 359.08C132.411 359.56 132.515 360.116 132.515 360.748H131.795C131.795 360.244 131.723 359.8 131.579 359.416C131.435 359.032 131.219 358.732 130.931 358.516C130.643 358.292 130.283 358.18 129.851 358.18C129.427 358.18 129.051 358.288 128.723 358.504C128.395 358.712 128.139 359.004 127.955 359.38C127.771 359.748 127.679 360.176 127.679 360.664C127.679 361.152 127.775 361.584 127.967 361.96C128.159 362.328 128.423 362.62 128.759 362.836C129.095 363.044 129.479 363.148 129.911 363.148C130.375 363.148 130.767 363.036 131.087 362.812C131.415 362.58 131.671 362.284 131.855 361.924L132.455 362.296C132.303 362.592 132.103 362.856 131.855 363.088C131.615 363.312 131.331 363.488 131.003 363.616C130.675 363.744 130.311 363.808 129.911 363.808ZM127.451 360.748V360.088H131.999V360.748H127.451Z" fill="white"/>
<path d="M140.974 361.132L137.326 355.708L137.602 355.492L137.902 355.264L141.346 360.364L140.974 361.132ZM137.134 363.664V355.264H137.902V363.664H137.134ZM140.974 361.132L140.626 360.364L144.058 355.264L144.358 355.492L144.622 355.696L140.974 361.132ZM144.058 363.664V355.264H144.826V363.664H144.058Z" fill="white"/>
<path d="M149.516 363.808C148.94 363.808 148.428 363.676 147.98 363.412C147.54 363.14 147.192 362.768 146.936 362.296C146.688 361.824 146.564 361.28 146.564 360.664C146.564 360.048 146.688 359.504 146.936 359.032C147.184 358.56 147.528 358.192 147.968 357.928C148.416 357.656 148.924 357.52 149.492 357.52C150.068 357.52 150.576 357.656 151.016 357.928C151.464 358.192 151.812 358.56 152.06 359.032C152.308 359.504 152.432 360.048 152.432 360.664C152.432 361.28 152.308 361.824 152.06 362.296C151.812 362.768 151.468 363.14 151.028 363.412C150.588 363.676 150.084 363.808 149.516 363.808ZM149.516 363.148C149.948 363.148 150.328 363.044 150.656 362.836C150.984 362.62 151.24 362.328 151.424 361.96C151.616 361.584 151.712 361.152 151.712 360.664C151.712 360.176 151.616 359.748 151.424 359.38C151.24 359.004 150.98 358.712 150.644 358.504C150.308 358.288 149.924 358.18 149.492 358.18C149.06 358.18 148.676 358.288 148.34 358.504C148.012 358.712 147.752 359.004 147.56 359.38C147.376 359.748 147.284 360.176 147.284 360.664C147.284 361.152 147.38 361.584 147.572 361.96C147.764 362.328 148.028 362.62 148.364 362.836C148.7 363.044 149.084 363.148 149.516 363.148Z" fill="white"/>
<path d="M153.873 363.664V355.264H154.593V362.548L154.557 363.664H153.873ZM156.705 363.808C156.201 363.808 155.753 363.676 155.361 363.412C154.969 363.14 154.661 362.768 154.437 362.296C154.221 361.816 154.113 361.272 154.113 360.664C154.113 360.048 154.221 359.504 154.437 359.032C154.661 358.56 154.969 358.192 155.361 357.928C155.753 357.656 156.201 357.52 156.705 357.52C157.233 357.52 157.701 357.656 158.109 357.928C158.517 358.192 158.837 358.56 159.069 359.032C159.301 359.504 159.417 360.048 159.417 360.664C159.417 361.272 159.301 361.816 159.069 362.296C158.837 362.768 158.517 363.14 158.109 363.412C157.701 363.676 157.233 363.808 156.705 363.808ZM156.561 363.16C156.977 363.16 157.345 363.056 157.665 362.848C157.985 362.632 158.237 362.336 158.421 361.96C158.605 361.584 158.697 361.152 158.697 360.664C158.697 360.176 158.605 359.744 158.421 359.368C158.245 358.992 157.997 358.7 157.677 358.492C157.357 358.276 156.989 358.168 156.573 358.168C156.189 358.168 155.845 358.276 155.541 358.492C155.245 358.7 155.013 358.992 154.845 359.368C154.677 359.744 154.593 360.176 154.593 360.664C154.593 361.152 154.677 361.584 154.845 361.96C155.013 362.336 155.245 362.632 155.541 362.848C155.837 363.056 156.177 363.16 156.561 363.16Z" fill="white"/>
<path d="M160.906 363.664L160.93 357.664H161.65L161.626 363.664H160.906ZM161.278 356.104C161.15 356.104 161.038 356.056 160.942 355.96C160.846 355.864 160.798 355.752 160.798 355.624C160.798 355.488 160.846 355.376 160.942 355.288C161.038 355.192 161.15 355.144 161.278 355.144C161.414 355.144 161.526 355.192 161.614 355.288C161.71 355.376 161.758 355.488 161.758 355.624C161.758 355.752 161.71 355.864 161.614 355.96C161.526 356.056 161.414 356.104 161.278 356.104Z" fill="white"/>
<path d="M163.494 363.664L163.518 355.264H164.238L164.214 363.664H163.494Z" fill="white"/>
<path d="M168.629 363.808C168.053 363.808 167.541 363.676 167.093 363.412C166.653 363.14 166.305 362.768 166.049 362.296C165.801 361.824 165.677 361.28 165.677 360.664C165.677 360.048 165.801 359.504 166.049 359.032C166.297 358.56 166.637 358.192 167.069 357.928C167.509 357.656 168.009 357.52 168.569 357.52C169.137 357.52 169.617 357.66 170.009 357.94C170.409 358.212 170.713 358.592 170.921 359.08C171.129 359.56 171.233 360.116 171.233 360.748H170.513C170.513 360.244 170.441 359.8 170.297 359.416C170.153 359.032 169.937 358.732 169.649 358.516C169.361 358.292 169.001 358.18 168.569 358.18C168.145 358.18 167.769 358.288 167.441 358.504C167.113 358.712 166.857 359.004 166.673 359.38C166.489 359.748 166.397 360.176 166.397 360.664C166.397 361.152 166.493 361.584 166.685 361.96C166.877 362.328 167.141 362.62 167.477 362.836C167.813 363.044 168.197 363.148 168.629 363.148C169.093 363.148 169.485 363.036 169.805 362.812C170.133 362.58 170.389 362.284 170.573 361.924L171.173 362.296C171.021 362.592 170.821 362.856 170.573 363.088C170.333 363.312 170.049 363.488 169.721 363.616C169.393 363.744 169.029 363.808 168.629 363.808ZM166.169 360.748V360.088H170.717V360.748H166.169Z" fill="white"/>
<path d="M181.661 363.664L178.229 355.264H179.021L182.477 363.664H181.661ZM174.773 363.664L178.229 355.264H179.021L175.589 363.664H174.773ZM176.405 361.06V360.364H180.845V361.06H176.405Z" fill="white"/>
<path d="M183.558 366.064V357.664H184.23L184.278 358.768V366.064H183.558ZM186.39 363.808C185.886 363.808 185.438 363.676 185.046 363.412C184.654 363.14 184.346 362.768 184.122 362.296C183.906 361.816 183.798 361.272 183.798 360.664C183.798 360.048 183.906 359.504 184.122 359.032C184.346 358.56 184.654 358.192 185.046 357.928C185.438 357.656 185.886 357.52 186.39 357.52C186.918 357.52 187.386 357.656 187.794 357.928C188.202 358.192 188.522 358.56 188.754 359.032C188.986 359.504 189.102 360.048 189.102 360.664C189.102 361.272 188.986 361.816 188.754 362.296C188.522 362.768 188.202 363.14 187.794 363.412C187.386 363.676 186.918 363.808 186.39 363.808ZM186.246 363.16C186.662 363.16 187.03 363.056 187.35 362.848C187.67 362.632 187.922 362.336 188.106 361.96C188.29 361.584 188.382 361.152 188.382 360.664C188.382 360.176 188.29 359.744 188.106 359.368C187.93 358.992 187.682 358.7 187.362 358.492C187.042 358.276 186.674 358.168 186.258 358.168C185.874 358.168 185.53 358.276 185.226 358.492C184.93 358.7 184.698 358.992 184.53 359.368C184.362 359.744 184.278 360.176 184.278 360.664C184.278 361.152 184.362 361.584 184.53 361.96C184.698 362.336 184.93 362.632 185.226 362.848C185.522 363.056 185.862 363.16 186.246 363.16Z" fill="white"/>
<path d="M190.601 366.064V357.664H191.273L191.321 358.768V366.064H190.601ZM193.433 363.808C192.929 363.808 192.481 363.676 192.089 363.412C191.697 363.14 191.389 362.768 191.165 362.296C190.949 361.816 190.841 361.272 190.841 360.664C190.841 360.048 190.949 359.504 191.165 359.032C191.389 358.56 191.697 358.192 192.089 357.928C192.481 357.656 192.929 357.52 193.433 357.52C193.961 357.52 194.429 357.656 194.837 357.928C195.245 358.192 195.565 358.56 195.797 359.032C196.029 359.504 196.145 360.048 196.145 360.664C196.145 361.272 196.029 361.816 195.797 362.296C195.565 362.768 195.245 363.14 194.837 363.412C194.429 363.676 193.961 363.808 193.433 363.808ZM193.289 363.16C193.705 363.16 194.073 363.056 194.393 362.848C194.713 362.632 194.965 362.336 195.149 361.96C195.333 361.584 195.425 361.152 195.425 360.664C195.425 360.176 195.333 359.744 195.149 359.368C194.973 358.992 194.725 358.7 194.405 358.492C194.085 358.276 193.717 358.168 193.301 358.168C192.917 358.168 192.573 358.276 192.269 358.492C191.973 358.7 191.741 358.992 191.573 359.368C191.405 359.744 191.321 360.176 191.321 360.664C191.321 361.152 191.405 361.584 191.573 361.96C191.741 362.336 191.973 362.632 192.269 362.848C192.565 363.056 192.905 363.16 193.289 363.16Z" fill="white"/>
<path d="M203.908 363.856C203.3 363.856 202.756 363.724 202.276 363.46C201.804 363.188 201.432 362.816 201.16 362.344C200.896 361.872 200.764 361.332 200.764 360.724H201.532C201.532 361.196 201.632 361.616 201.832 361.984C202.04 362.352 202.324 362.64 202.684 362.848C203.052 363.056 203.468 363.16 203.932 363.16C204.404 363.16 204.82 363.056 205.18 362.848C205.548 362.64 205.832 362.352 206.032 361.984C206.24 361.616 206.344 361.196 206.344 360.724H207.112C207.112 361.332 206.976 361.872 206.704 362.344C206.432 362.816 206.052 363.188 205.564 363.46C205.084 363.724 204.532 363.856 203.908 363.856ZM200.764 360.724V355.264H201.532V360.724H200.764ZM206.344 360.724V355.264H207.112V360.724H206.344Z" fill="white"/>
<path d="M209.392 363.664V355.264H210.16V363.664H209.392Z" fill="white"/>
<path d="M217.212 363.664V355.96H217.98V363.664H217.212ZM214.476 355.96V355.264H220.716V355.96H214.476Z" fill="white"/>
<path d="M223.614 363.808C223.038 363.808 222.526 363.676 222.078 363.412C221.638 363.14 221.29 362.768 221.034 362.296C220.786 361.824 220.662 361.28 220.662 360.664C220.662 360.048 220.786 359.504 221.034 359.032C221.282 358.56 221.622 358.192 222.054 357.928C222.494 357.656 222.994 357.52 223.554 357.52C224.122 357.52 224.602 357.66 224.994 357.94C225.394 358.212 225.698 358.592 225.906 359.08C226.114 359.56 226.218 360.116 226.218 360.748H225.498C225.498 360.244 225.426 359.8 225.282 359.416C225.138 359.032 224.922 358.732 224.634 358.516C224.346 358.292 223.986 358.18 223.554 358.18C223.13 358.18 222.754 358.288 222.426 358.504C222.098 358.712 221.842 359.004 221.658 359.38C221.474 359.748 221.382 360.176 221.382 360.664C221.382 361.152 221.478 361.584 221.67 361.96C221.862 362.328 222.126 362.62 222.462 362.836C222.798 363.044 223.182 363.148 223.614 363.148C224.078 363.148 224.47 363.036 224.79 362.812C225.118 362.58 225.374 362.284 225.558 361.924L226.158 362.296C226.006 362.592 225.806 362.856 225.558 363.088C225.318 363.312 225.034 363.488 224.706 363.616C224.378 363.744 224.014 363.808 223.614 363.808ZM221.154 360.748V360.088H225.702V360.748H221.154Z" fill="white"/>
<path d="M227.537 363.664V357.664H228.209L228.257 358.768V363.664H227.537ZM231.845 363.664V360.592L232.565 360.232V363.664H231.845ZM236.153 363.664V360.592L236.873 360.232V363.664H236.153ZM231.845 360.592C231.845 359.928 231.765 359.424 231.605 359.08C231.453 358.736 231.241 358.504 230.969 358.384C230.705 358.256 230.405 358.192 230.069 358.192C229.501 358.192 229.057 358.404 228.737 358.828C228.417 359.244 228.257 359.828 228.257 360.58H227.813C227.813 359.94 227.901 359.392 228.077 358.936C228.261 358.48 228.529 358.132 228.881 357.892C229.241 357.644 229.677 357.52 230.189 357.52C230.909 357.52 231.485 357.744 231.917 358.192C232.357 358.64 232.573 359.32 232.565 360.232L231.845 360.592ZM236.153 360.592C236.153 359.928 236.073 359.424 235.913 359.08C235.761 358.736 235.549 358.504 235.277 358.384C235.013 358.256 234.713 358.192 234.377 358.192C233.809 358.192 233.365 358.404 233.045 358.828C232.725 359.244 232.565 359.828 232.565 360.58H232.121C232.121 359.94 232.209 359.392 232.385 358.936C232.569 358.48 232.837 358.132 233.189 357.892C233.549 357.644 233.985 357.52 234.497 357.52C235.217 357.52 235.793 357.744 236.225 358.192C236.665 358.64 236.881 359.32 236.873 360.232L236.153 360.592Z" fill="white"/>
<path d="M238.554 366.064V357.664H239.226L239.274 358.768V366.064H238.554ZM241.386 363.808C240.882 363.808 240.434 363.676 240.042 363.412C239.65 363.14 239.342 362.768 239.118 362.296C238.902 361.816 238.794 361.272 238.794 360.664C238.794 360.048 238.902 359.504 239.118 359.032C239.342 358.56 239.65 358.192 240.042 357.928C240.434 357.656 240.882 357.52 241.386 357.52C241.914 357.52 242.382 357.656 242.79 357.928C243.198 358.192 243.518 358.56 243.75 359.032C243.982 359.504 244.098 360.048 244.098 360.664C244.098 361.272 243.982 361.816 243.75 362.296C243.518 362.768 243.198 363.14 242.79 363.412C242.382 363.676 241.914 363.808 241.386 363.808ZM241.242 363.16C241.658 363.16 242.026 363.056 242.346 362.848C242.666 362.632 242.918 362.336 243.102 361.96C243.286 361.584 243.378 361.152 243.378 360.664C243.378 360.176 243.286 359.744 243.102 359.368C242.926 358.992 242.678 358.7 242.358 358.492C242.038 358.276 241.67 358.168 241.254 358.168C240.87 358.168 240.526 358.276 240.222 358.492C239.926 358.7 239.694 358.992 239.526 359.368C239.358 359.744 239.274 360.176 239.274 360.664C239.274 361.152 239.358 361.584 239.526 361.96C239.694 362.336 239.926 362.632 240.222 362.848C240.518 363.056 240.858 363.16 241.242 363.16Z" fill="white"/>
<path d="M245.537 363.664L245.561 355.264H246.281L246.257 363.664H245.537Z" fill="white"/>
<path d="M251.872 363.664L251.752 360.448C251.736 359.936 251.668 359.516 251.548 359.188C251.436 358.852 251.26 358.6 251.02 358.432C250.788 358.264 250.476 358.18 250.084 358.18C249.7 358.18 249.368 358.256 249.088 358.408C248.816 358.56 248.596 358.788 248.428 359.092L247.78 358.804C247.956 358.516 248.156 358.276 248.38 358.084C248.612 357.892 248.868 357.752 249.148 357.664C249.436 357.568 249.748 357.52 250.084 357.52C250.62 357.52 251.064 357.628 251.416 357.844C251.768 358.06 252.032 358.384 252.208 358.816C252.384 359.248 252.472 359.792 252.472 360.448V363.664H251.872ZM249.964 363.808C249.26 363.808 248.708 363.648 248.308 363.328C247.916 363 247.72 362.548 247.72 361.972C247.72 361.38 247.916 360.92 248.308 360.592C248.708 360.264 249.26 360.1 249.964 360.1H252.22V360.76H250.06C249.484 360.76 249.068 360.868 248.812 361.084C248.564 361.292 248.44 361.588 248.44 361.972C248.44 362.34 248.568 362.628 248.824 362.836C249.088 363.044 249.452 363.148 249.916 363.148C250.308 363.148 250.64 363.064 250.912 362.896C251.192 362.72 251.404 362.48 251.548 362.176C251.7 361.864 251.776 361.504 251.776 361.096H252.424C252.424 361.912 252.208 362.568 251.776 363.064C251.344 363.56 250.74 363.808 249.964 363.808Z" fill="white"/>
<path d="M256.384 363.808C255.832 363.808 255.4 363.664 255.088 363.376C254.776 363.08 254.62 362.664 254.62 362.128V355.792H255.34V362.128C255.34 362.448 255.432 362.7 255.616 362.884C255.8 363.06 256.056 363.148 256.384 363.148C256.48 363.148 256.572 363.136 256.66 363.112C256.756 363.08 256.892 363.004 257.068 362.884L257.368 363.508C257.152 363.636 256.972 363.716 256.828 363.748C256.684 363.788 256.536 363.808 256.384 363.808ZM253.552 358.324V357.664H257.248V358.324H253.552Z" fill="white"/>
<path d="M261.208 363.808C260.632 363.808 260.12 363.676 259.672 363.412C259.232 363.14 258.884 362.768 258.628 362.296C258.38 361.824 258.256 361.28 258.256 360.664C258.256 360.048 258.38 359.504 258.628 359.032C258.876 358.56 259.216 358.192 259.648 357.928C260.088 357.656 260.588 357.52 261.148 357.52C261.716 357.52 262.196 357.66 262.588 357.94C262.988 358.212 263.292 358.592 263.5 359.08C263.708 359.56 263.812 360.116 263.812 360.748H263.092C263.092 360.244 263.02 359.8 262.876 359.416C262.732 359.032 262.516 358.732 262.228 358.516C261.94 358.292 261.58 358.18 261.148 358.18C260.724 358.18 260.348 358.288 260.02 358.504C259.692 358.712 259.436 359.004 259.252 359.38C259.068 359.748 258.976 360.176 258.976 360.664C258.976 361.152 259.072 361.584 259.264 361.96C259.456 362.328 259.72 362.62 260.056 362.836C260.392 363.044 260.776 363.148 261.208 363.148C261.672 363.148 262.064 363.036 262.384 362.812C262.712 362.58 262.968 362.284 263.152 361.924L263.752 362.296C263.6 362.592 263.4 362.856 263.152 363.088C262.912 363.312 262.628 363.488 262.3 363.616C261.972 363.744 261.608 363.808 261.208 363.808ZM258.748 360.748V360.088H263.296V360.748H258.748Z" fill="white"/>
<path fill-rule="evenodd" clip-rule="evenodd" d="M135.398 336.612C132.025 336.612 129.032 335.917 126.418 334.528C123.847 333.096 121.823 331.138 120.347 328.654C118.872 326.17 118.134 323.307 118.134 320.065C118.134 316.823 118.851 313.96 120.284 311.475C121.76 308.991 123.783 307.054 126.355 305.665C128.969 304.233 131.941 303.517 135.272 303.517C138.644 303.517 141.616 304.233 144.188 305.665C146.802 307.054 148.826 308.991 150.259 311.475C151.735 313.96 152.472 316.823 152.472 320.065C152.472 323.307 151.735 326.17 150.259 328.654C148.826 331.138 146.823 333.096 144.251 334.528C141.68 335.917 138.729 336.612 135.398 336.612ZM140.36 317.403C140.394 317.462 140.427 317.521 140.458 317.582C140.642 317.057 140.62 316.598 140.394 316.205C140.128 315.745 139.644 315.484 138.942 315.42C138.877 315.413 138.867 315.303 138.931 315.292C139.584 315.18 140.168 315.153 140.685 315.211C141.586 315.3 142.209 315.642 142.553 316.238C142.897 316.834 142.882 317.544 142.508 318.369C142.153 319.183 141.496 320.042 140.537 320.947C139.574 321.844 138.373 322.707 136.934 323.538C135.478 324.379 134.111 324.997 132.834 325.394C131.572 325.772 130.49 325.917 129.589 325.828C128.688 325.739 128.066 325.397 127.721 324.801C127.377 324.205 127.383 323.5 127.739 322.686C127.957 322.205 128.275 321.711 128.694 321.205C128.735 321.156 128.824 321.219 128.797 321.277C128.515 321.909 128.507 322.455 128.772 322.914C128.997 323.305 129.381 323.552 129.922 323.657L129.907 323.632C129.392 322.731 129.134 321.693 129.134 320.517C129.134 319.342 129.384 318.304 129.885 317.403C130.401 316.502 131.108 315.8 132.007 315.296C132.92 314.777 133.959 314.517 135.123 314.517C136.302 314.517 137.34 314.777 138.239 315.296C139.152 315.8 139.86 316.502 140.36 317.403ZM133.446 326.316C133.984 326.45 134.558 326.517 135.167 326.517C136.331 326.517 137.362 326.266 138.261 325.762C139.16 325.243 139.86 324.533 140.36 323.632C140.786 322.888 141.036 322.05 141.111 321.119C140.913 321.36 140.701 321.594 140.476 321.809C139.589 322.65 138.482 323.46 137.157 324.238C136.878 324.402 136.462 324.589 136.003 324.795C135.026 325.235 133.861 325.759 133.446 326.316Z" fill="white"/>
<path d="M198.919 305.181H188.168V336.759H199.551V319.96C199.551 318.233 199.952 316.97 200.753 316.17C201.553 315.37 202.755 315.012 204.357 315.096C205.158 315.138 205.811 315.37 206.318 315.791C206.865 316.212 207.266 316.823 207.519 317.623C207.814 318.381 207.962 319.37 207.962 320.591V336.759H219.344V319.96C219.344 318.233 219.745 316.97 220.546 316.17C221.347 315.37 222.549 315.012 224.151 315.096C224.952 315.138 225.605 315.37 226.111 315.791C226.659 316.212 227.06 316.823 227.312 317.623C227.608 318.381 227.755 319.37 227.755 320.591V336.759H239.138V318.696C239.138 313.812 238.211 310.212 236.356 307.896C234.501 305.581 231.634 304.423 227.755 304.423C225.563 304.423 223.602 305.033 221.874 306.254C220.348 307.295 219.101 308.779 218.133 310.707C217.717 309.621 217.193 308.684 216.562 307.896C214.707 305.581 211.84 304.423 207.962 304.423C205.769 304.423 203.809 305.033 202.081 306.254C201.294 306.79 200.302 307.899 199.363 309.264L198.919 305.181Z" fill="white"/>
<path d="M249.458 302.632C247.771 302.632 246.296 302 245.031 300.737C243.766 299.474 243.134 298 243.134 296.316C243.134 294.589 243.766 293.116 245.031 291.895C246.296 290.632 247.771 290 249.458 290C251.186 290 252.662 290.632 253.884 291.895C255.149 293.116 255.781 294.589 255.781 296.316C255.781 298 255.149 299.474 253.884 300.737C252.662 302 251.186 302.632 249.458 302.632Z" fill="white"/>
<path d="M243.766 336.759V306.643C243.766 305.88 244.455 305.302 245.207 305.434L-nan -nanL245.207 305.434C248.019 305.928 250.896 305.928 253.708 305.434L-nan -nanL253.708 305.434C254.46 305.302 255.149 305.88 255.149 306.643V336.759H243.766Z" fill="white"/>
<path d="M169.555 337.517C167.447 337.517 165.487 337.223 163.674 336.633C161.861 336.044 160.301 335.223 158.994 334.17C157.73 333.075 156.844 331.77 156.338 330.254L165.381 326.717C165.845 327.854 166.499 328.591 167.342 328.928C168.185 329.223 168.923 329.37 169.555 329.37C170.23 329.37 170.778 329.223 171.199 328.928C171.621 328.633 171.832 328.212 171.832 327.665C171.832 327.075 171.537 326.591 170.946 326.212C170.356 325.791 169.45 325.433 168.227 325.138L165.634 324.507C162.81 323.791 160.681 322.549 159.247 320.781C157.814 319.012 157.097 316.949 157.097 314.591C157.097 311.349 158.278 308.844 160.639 307.075C163.042 305.307 166.288 304.423 170.377 304.423C172.865 304.423 174.951 304.738 176.638 305.37C178.366 305.96 179.779 306.802 180.875 307.896C181.971 308.991 182.814 310.254 183.404 311.686L174.614 315.033C174.319 314.191 173.813 313.581 173.096 313.202C172.422 312.823 171.579 312.633 170.567 312.633C169.85 312.633 169.281 312.802 168.86 313.138C168.48 313.475 168.291 313.875 168.291 314.338C168.291 314.844 168.585 315.286 169.176 315.665C169.808 316.002 170.757 316.338 172.021 316.675L174.614 317.307C176.553 317.77 178.24 318.486 179.673 319.454C181.107 320.381 182.224 321.538 183.025 322.928C183.826 324.317 184.226 325.917 184.226 327.728C184.226 329.791 183.615 331.56 182.393 333.033C181.17 334.465 179.462 335.581 177.27 336.381C175.078 337.138 172.506 337.517 169.555 337.517Z" fill="white"/>
<path fill-rule="evenodd" clip-rule="evenodd" d="M101.339 316.68L109.814 309.794C108.684 308.537 107.345 307.483 105.797 306.629C103.251 305.158 100.308 304.423 96.9688 304.423C93.6711 304.423 90.7282 305.158 88.1399 306.629C85.5937 308.056 83.59 310.046 82.129 312.598C80.7097 315.15 80 318.092 80 321.423C80 321.5 80.0004 321.576 80.0012 321.653C80.0004 321.727 80 321.801 80 321.875C80 325.117 80.7168 327.981 82.1501 330.465C83.5364 332.799 85.4063 334.649 87.7598 336.017C87.9055 336.107 88.0531 336.195 88.2025 336.281C90.7908 337.709 93.7545 338.423 97.094 338.423C97.1013 338.423 97.1085 338.423 97.1158 338.423C97.1231 338.423 97.1304 338.423 97.1377 338.423C100.51 338.423 103.482 337.707 106.054 336.275C108.668 334.886 110.692 332.949 112.125 330.465C113.336 328.426 114.05 326.133 114.267 323.584C114.279 323.446 114.169 323.328 114.03 323.328C113.911 323.328 113.811 323.415 113.792 323.532C113.481 325.483 112.82 327.263 111.808 328.874C111.127 329.991 110.31 330.991 109.359 331.872L101.333 325.35C101.691 324.987 101.996 324.568 102.249 324.092C102.744 323.202 102.992 322.174 102.992 321.007C102.992 319.854 102.744 318.825 102.249 317.921C101.997 317.455 101.694 317.041 101.339 316.68ZM92.9462 318.45C92.5439 319.205 92.3428 320.07 92.3428 321.045C92.3428 322.007 92.5439 322.86 92.9462 323.603C93.3607 324.346 93.9276 324.925 94.6469 325.339C95.3662 325.765 96.1953 325.979 97.134 325.979C98.0727 325.979 98.9017 325.765 99.621 325.339C100.34 324.925 100.901 324.34 101.303 323.585C101.718 322.842 101.925 321.983 101.925 321.008C101.925 320.046 101.718 319.187 101.303 318.432C100.901 317.689 100.34 317.104 99.621 316.677C98.9017 316.263 98.0727 316.056 97.134 316.056C96.1953 316.056 95.3662 316.269 94.6469 316.696C93.9276 317.122 93.3607 317.707 92.9462 318.45Z" fill="white"/>
<path fill-rule="evenodd" clip-rule="evenodd" d="M280.986 316.68L289.461 309.794C288.332 308.537 286.993 307.483 285.445 306.629C282.898 305.158 279.956 304.423 276.616 304.423C273.318 304.423 270.376 305.158 267.787 306.629C265.241 308.056 263.237 310.046 261.776 312.598C260.357 315.15 259.647 318.092 259.647 321.423C259.647 321.5 259.648 321.576 259.649 321.653C259.648 321.727 259.647 321.801 259.647 321.875C259.647 325.117 260.364 327.981 261.798 330.465C263.184 332.799 265.054 334.649 267.407 336.017C267.553 336.107 267.701 336.195 267.85 336.281C270.438 337.709 273.402 338.423 276.741 338.423C276.749 338.423 276.756 338.423 276.763 338.423C276.771 338.423 276.778 338.423 276.785 338.423C280.158 338.423 283.13 337.707 285.702 336.275C288.315 334.886 290.339 332.949 291.772 330.465C292.983 328.426 293.697 326.133 293.915 323.584C293.926 323.446 293.816 323.328 293.678 323.328C293.559 323.328 293.458 323.415 293.44 323.532C293.128 325.483 292.467 327.263 291.456 328.874C290.774 329.991 289.958 330.991 289.007 331.872L280.98 325.35C281.338 324.987 281.643 324.568 281.896 324.092C282.392 323.202 282.639 322.174 282.639 321.007C282.639 319.854 282.392 318.825 281.896 317.921C281.645 317.455 281.341 317.041 280.986 316.68ZM272.594 318.45C272.191 319.205 271.99 320.07 271.99 321.045C271.99 322.007 272.191 322.86 272.594 323.603C273.008 324.346 273.575 324.925 274.294 325.339C275.014 325.765 275.843 325.979 276.781 325.979C277.72 325.979 278.549 325.765 279.268 325.339C279.988 324.925 280.549 324.34 280.951 323.585C281.365 322.842 281.573 321.983 281.573 321.008C281.573 320.046 281.365 319.187 280.951 318.432C280.549 317.689 279.988 317.104 279.268 316.677C278.549 316.263 277.72 316.056 276.781 316.056C275.843 316.056 275.014 316.269 274.294 316.696C273.575 317.122 273.008 317.707 272.594 318.45Z" fill="white"/>
<defs>
<filter id="filter0_f_617_1090" x="-140.797" y="6.10352e-05" width="656" height="656" filterUnits="userSpaceOnUse" color-interpolation-filters="sRGB">
<feFlood flood-opacity="0" result="BackgroundImageFix"/>
<feBlend mode="normal" in="SourceGraphic" in2="BackgroundImageFix" result="shape"/>
<feGaussianBlur stdDeviation="90" result="effect1_foregroundBlur_617_1090"/>
</filter>
<filter id="filter1_f_617_1090" x="15.2029" y="175.911" width="343.935" height="324.089" filterUnits="userSpaceOnUse" color-interpolation-filters="sRGB">
<feFlood flood-opacity="0" result="BackgroundImageFix"/>
<feBlend mode="normal" in="SourceGraphic" in2="BackgroundImageFix" result="shape"/>
<feGaussianBlur stdDeviation="12" result="effect1_foregroundBlur_617_1090"/>
</filter>
</defs>
</svg>
